<?xml version="1.0" encoding="UTF-8" standalone="no"?>
<!-- Created with Inkscape (http://www.inkscape.org/) -->

<svg
   version="1.1"
   id="svg1"
   width="5333.3335"
   height="5333.3335"
   viewBox="0 0 5333.3335 5333.3335"
   sodipodi:docname="c8567855-7722-4d98-9c49-1903e2bf94f6.eps"
   xmlns:inkscape="http://www.inkscape.org/namespaces/inkscape"
   xmlns:sodipodi="http://sodipodi.sourceforge.net/DTD/sodipodi-0.dtd"
   xmlns="http://www.w3.org/2000/svg"
   xmlns:svg="http://www.w3.org/2000/svg">
  <defs
     id="defs1" />
  <sodipodi:namedview
     id="namedview1"
     pagecolor="#ffffff"
     bordercolor="#000000"
     borderopacity="0.25"
     inkscape:showpageshadow="2"
     inkscape:pageopacity="0.0"
     inkscape:pagecheckerboard="0"
     inkscape:deskcolor="#d1d1d1">
    <inkscape:page
       x="0"
       y="0"
       inkscape:label="1"
       id="page1"
       width="5333.3335"
       height="5333.3335"
       margin="0"
       bleed="0" />
  </sodipodi:namedview>
  <g
     id="g1"
     inkscape:groupmode="layer"
     inkscape:label="1">
    <g
       id="group-R5">
      <path
         id="path2"
         d="M 0,0 H 40000 V 40000 H 0 Z"
         style="fill:#ffb8d0;fill-opacity:1;fill-rule:nonzero;stroke:none"
         transform="matrix(0.13333333,0,0,-0.13333333,0,5333.3333)" />
      <path
         id="path3"
         d="m 20577.7,4537.3 c -483.6,0 -794.1,382.1 -1492.6,1683.7 -833.4,1552.7 -2776.3,5809.3 -2973.3,7427.3 -308.7,2534.8 1142.3,12661.7 1862.8,15684.4 823.9,3456.9 2901.6,4567.4 5731.6,4083.8 2706.7,-462.5 4054.4,-2273.9 3600.2,-5391.3 C 26070.5,19541.1 25754.1,14340.8 25533.2,13015.4 25198.9,10997.4 22717,7110.8 21738.8,5618 21217.4,4822.1 20898.6,4537.3 20577.7,4537.3"
         style="fill:#ffd41d;fill-opacity:1;fill-rule:nonzero;stroke:none"
         transform="matrix(0.13333333,0,0,-0.13333333,0,5333.3333)" />
      <path
         id="path4"
         d="m 16253.8,13835 c -65.1,791.8 4.6,2170.3 154.1,3802.9 235.3,-12.8 471.3,-25.7 705.3,-38.5 -81.3,-1023.8 -149,-2120.2 -196.2,-3283.6 -229.4,-81.9 -454.1,-233.3 -663.2,-480.8 m 2100.3,12518.3 -785.5,40.6 c 90.7,536 180,1036 265.5,1486.2 158.1,26 423.4,64.7 776.6,98.3 v 0.1 c 276.6,26.4 607.3,49.6 982.6,61.3 v -0.2 c 162.9,5.1 334.3,8 513.2,8 216,0 443.1,-4.2 680.2,-13.9 -35.2,-194.9 -69.7,-389.5 -103.5,-583.8 -1380.4,-9.5 -2113.4,-198.9 -2113.4,-198.9 0,0 -84.3,-307.6 -215.7,-897.7 m 8573.4,146.9 c -936,269 -1801,466.6 -2590.9,609.7 22,126.7 44,249.8 66,369.6 822.5,-225.5 1674.7,-533.6 2529,-950.1 -1.3,-9.7 -2.7,-19.5 -4.1,-29.2 m -2906.1,664.7 c -1189.6,198.9 -2199.1,273 -3013.6,283.9 31.9,182.7 64.5,366 97.6,549.2 l -157,28.4 c 51.7,-2.6 103.9,-5.5 156.5,-8.6 v 0.1 c 937.6,-56 2010.3,-198.9 3143.7,-497 l -158.4,29.1 c -22.9,-124.6 -45.9,-253 -68.8,-385.1"
         style="fill:#fff2bb;fill-opacity:1;fill-rule:nonzero;stroke:none"
         transform="matrix(0.13333333,0,0,-0.13333333,0,5333.3333)" />
      <path
         id="path5"
         d="m 20688.5,27016.9 c 47.8,-3 96.3,-6.4 145.5,-10.1 1377.3,-104.4 2382.1,-1348.3 2208.8,-2718.6 -226,-1786.7 -404.9,-3403.6 -520.7,-4503.2 -142.7,-1354.9 -1375.1,-2331.4 -2724.9,-2147 -22.5,3.1 -45,6.3 -67.8,9.8 -1186,182.4 -2060.6,1210.6 -2048.5,2410.4 19.6,1950.9 255.1,3717.5 478.3,4970.1 215.4,1208.5 1304.1,2065.8 2529.3,1988.6"
         style="fill:#ffe266;fill-opacity:1;fill-rule:nonzero;stroke:none"
         transform="matrix(0.13333333,0,0,-0.13333333,0,5333.3333)" />
      <path
         id="path6"
         d="m 17717.1,15155.2 c 0,0 1014,26.3 1602.5,-630.8 786.5,592 2260.5,844.7 3315.8,-465.9 1297.2,912.1 2508.4,194.4 2508.4,194.4 0,0 690.8,5614.4 1458.8,11817.3 -121.1,112 -305.8,172.1 -305.8,172.1 l -1029.2,-7911.6 c 0,0 -1655.8,-614.2 -2491.3,-2771.3 0,0 -1546.1,1413.7 -3387.3,-49.4 -1122,63.2 -1671.9,-354.8 -1671.9,-354.8"
         style="fill:#ef9300;fill-opacity:1;fill-rule:nonzero;stroke:none"
         transform="matrix(0.13333333,0,0,-0.13333333,0,5333.3333)" />
      <path
         id="path7"
         d="m 22460.5,22943.3 c -21.2,-197.7 -385.8,-320.5 -814.3,-274.5 -428.5,46.1 -758.7,243.7 -737.4,441.3 21.2,197.6 1572.9,30.8 1551.7,-166.8"
         style="fill:#ef9300;fill-opacity:1;fill-rule:nonzero;stroke:none"
         transform="matrix(0.13333333,0,0,-0.13333333,0,5333.3333)" />
      <path
         id="path8"
         d="m 23706.2,33416.5 c -2830,483.6 -4907.7,-626.9 -5731.6,-4083.8 -57.6,-241.6 -119.9,-528.9 -185.6,-853.8 4688.7,1003.5 7925.3,-386.9 9399.9,-1270.4 38.2,268.8 77.4,540.9 117.5,816.7 454.2,3117.4 -893.5,4928.8 -3600.2,5391.3"
         style="fill:#ff7676;fill-opacity:1;fill-rule:nonzero;stroke:none"
         transform="matrix(0.13333333,0,0,-0.13333333,0,5333.3333)" />
      <path
         id="path9"
         d="m 21353.3,32877.3 c -970.1,-244.4 -1513.1,-855.8 -1780.6,-1432.2 -445,-958.9 448.2,-1054.6 2158.6,-1078.8 2104,-29.8 2815.6,370 2998.4,1006.6 362.9,1263.7 -1740.1,1916.7 -3376.4,1504.4"
         style="fill:#ff9494;fill-opacity:1;fill-rule:nonzero;stroke:none"
         transform="matrix(0.13333333,0,0,-0.13333333,0,5333.3333)" />
      <path
         id="path10"
         d="m 25471.3,32290.4 c 1319.2,-906.1 1611.5,-2932.9 1387.2,-4263.9 -2488.5,170.9 -8318.6,1418.5 -8318.6,1418.5 l 35.1,156.1 c 1273.8,384.6 2381.2,350 3397.6,315.4 826.3,-28.2 1592.6,-56.3 2339.1,140.9 1895.5,500.6 1159.6,2233 1159.6,2233"
         style="fill:#e23952;fill-opacity:1;fill-rule:nonzero;stroke:none"
         transform="matrix(0.13333333,0,0,-0.13333333,0,5333.3333)" />
      <path
         id="path11"
         d="m 18148.7,29372.1 c 659,2677.9 2085.7,3994 4344.2,3994 372.7,0 768.1,-35.8 1186.4,-107.3 2083.8,-356.1 3273.8,-1511.5 3510.2,-3376.6 -376.3,1810 -1678.8,3259.9 -4092.9,3259.9 -564.9,0 -1063.9,-73.6 -1504.8,-212.7 -80.3,-15 -160,-32.3 -238.5,-52.1 -970.1,-244.4 -1513.1,-855.8 -1780.6,-1432.2 -46.6,-100.6 -78.6,-191.7 -96.5,-274.3 -1.1,6.5 -2.1,13 -3.2,19.5 -259.1,-443.8 -463.1,-951.7 -623.3,-1511.9 -90.7,-23.7 -182.3,-49.4 -274.7,-77.3 l -35.1,-156.1 c -164.6,-27.3 -296.3,-53 -391.2,-72.9 m 2041.1,1091.4 c -78.8,6.2 -154.9,23.4 -226.9,52 69,-19.9 144.8,-37.1 226.9,-52"
         style="fill:#ffd6d6;fill-opacity:1;fill-rule:nonzero;stroke:none"
         transform="matrix(0.13333333,0,0,-0.13333333,0,5333.3333)" />
      <path
         id="path12"
         d="m 20258.7,30460.8 c -23.2,0 -46.2,0.9 -68.9,2.7 -82.1,14.9 -157.9,32.1 -226.9,52 -41,16.3 -80.6,36.3 -118.6,60.2 -200.4,125.9 -323.6,339.3 -368.1,595.1 17.9,82.6 49.9,173.7 96.5,274.3 267.5,576.4 810.5,1187.8 1780.6,1432.2 78.5,19.8 158.2,37.1 238.5,52.1 -2.1,-0.7 -4.2,-1.3 -6.3,-2 312.3,-369 290.5,-1051.6 -84.9,-1648.9 -322,-512.3 -813.3,-817.7 -1241.9,-817.7"
         style="fill:#ffdfdf;fill-opacity:1;fill-rule:nonzero;stroke:none"
         transform="matrix(0.13333333,0,0,-0.13333333,0,5333.3333)" />
      <path
         id="path13"
         d="m 18539.9,29445 35.1,156.1 c 92.4,27.9 184,53.6 274.7,77.3 -18.3,-63.9 -36,-128.5 -53.1,-193.7 -92.8,-13.3 -178.3,-26.7 -256.7,-39.7"
         style="fill:#f6c3cb;fill-opacity:1;fill-rule:nonzero;stroke:none"
         transform="matrix(0.13333333,0,0,-0.13333333,0,5333.3333)" />
      <path
         id="path14"
         d="m 22287.8,30839.5 c -33.7,0 -67,5.2 -99.5,16.1 -226.7,76.5 -321.6,402.3 -211.9,727.9 94,279 307.9,467.3 509.8,467.3 33.7,0 67,-5.2 99.5,-16.2 226.7,-76.4 321.6,-402.2 211.9,-727.8 -94,-279.1 -307.9,-467.3 -509.8,-467.3"
         style="fill:#ffdfdf;fill-opacity:1;fill-rule:nonzero;stroke:none"
         transform="matrix(0.13333333,0,0,-0.13333333,0,5333.3333)" />
      <path
         id="path15"
         d="m 17974.6,29332.7 c -92.4,-387.6 -196.8,-892.3 -308,-1482.6 0.1,0 4704.3,971.9 9416.1,-1395.5 l 0.1,0.6 c 64.9,466.2 132.8,944 203.7,1432.3 -1,-0.3 0.3,2.2 0.5,3.3 -4452.6,2689.6 -9312.3,1441.9 -9312.4,1441.9"
         style="fill:#d7e9f9;fill-opacity:1;fill-rule:nonzero;stroke:none"
         transform="matrix(0.13333333,0,0,-0.13333333,0,5333.3333)" />
      <path
         id="path16"
         d="m 18120.7,28176.5 c 0,0 4941.5,649.5 8715.2,-1336.8 l 142.5,897.6 c -223.3,153.4 -1023.9,534.7 -1023.9,534.7 l -126.4,-625.4 c -3781.4,1390.1 -7669.7,729 -7669.7,729 l -37.7,-199.1"
         style="fill:#98b9e2;fill-opacity:1;fill-rule:nonzero;stroke:none"
         transform="matrix(0.13333333,0,0,-0.13333333,0,5333.3333)" />
      <path
         id="path17"
         d="m 17834.1,27880.1 v 0 c 158,26.1 423.5,64.8 776.6,98.4 v -0.1 c -353.2,-33.6 -618.5,-72.3 -776.6,-98.3"
         style="fill:#fffbea;fill-opacity:1;fill-rule:nonzero;stroke:none"
         transform="matrix(0.13333333,0,0,-0.13333333,0,5333.3333)" />
      <path
         id="path18"
         d="m 27104.6,27748.2 c -2162.2,1220.2 -4290.9,1528.9 -5848.3,1540.9 l -91.7,-769.7 c -243,9.3 -475.9,13.3 -697.2,13.3 -294.9,0 -568.9,-7.1 -817.5,-18.3 l 82.2,690.5 c -573.6,-69.7 -906.9,-157.3 -906.9,-157.3 l -120.9,-602.4 c -348.8,-36 -545.9,-69.6 -545.9,-69.6 l -37.7,-199.1 c 0,0 196.1,25.8 540,51.4 l -50,-249.4 c -353.1,-33.6 -618.6,-72.3 -776.6,-98.4 105.8,556.7 206,1037.3 296.1,1415.5 6.1,25.7 12.3,51.1 18.5,76.5 376.8,79.1 1337.2,249.6 2615.8,249.6 1755.2,0 4109.3,-321.4 6373.6,-1642.5 -11.2,-77.2 -22.4,-154.4 -33.5,-231"
         style="fill:#f3f8fd;fill-opacity:1;fill-rule:nonzero;stroke:none"
         transform="matrix(0.13333333,0,0,-0.13333333,0,5333.3333)" />
      <path
         id="path19"
         d="m 21104.9,28017.8 c -52.6,3.1 -104.8,6 -156.5,8.6 l -0.6,0.1 c 52,-2.6 104.2,-5.5 157.1,-8.6 v -0.1 m -318.2,15.9 c -237.1,9.7 -464.2,13.9 -680.2,13.9 -178.9,0 -350.3,-2.9 -513.2,-8 v 0.2 c 162.6,5 333.3,7.9 511.9,7.9 216.5,0 443.9,-4.2 681.5,-13.9 v -0.1"
         style="fill:#fffbea;fill-opacity:1;fill-rule:nonzero;stroke:none"
         transform="matrix(0.13333333,0,0,-0.13333333,0,5333.3333)" />
      <path
         id="path20"
         d="m 21104.9,28017.9 c -52.9,3.1 -105.1,6 -157.1,8.6 l -157.3,28.4 c -1.3,-7.2 -2.5,-13.9 -3.8,-21.1 -237.6,9.7 -465,13.9 -681.5,13.9 -178.6,0 -349.3,-2.9 -511.9,-7.9 l 27.9,233.5 c 139.1,3 285.8,4.8 439.5,4.8 328.7,0 688.9,-8.1 1071.7,-28.7 l -27.5,-231.5"
         style="fill:#f3f8fd;fill-opacity:1;fill-rule:nonzero;stroke:none"
         transform="matrix(0.13333333,0,0,-0.13333333,0,5333.3333)" />
      <path
         id="path21"
         d="m 18120.7,28176.5 37.7,199.1 c 0,0 197.1,33.6 545.9,69.6 l -43.6,-217.3 c -343.9,-25.6 -540,-51.4 -540,-51.4 m 3011.7,72.9 c -382.8,20.6 -743,28.7 -1071.7,28.7 -153.7,0 -300.4,-1.8 -439.5,-4.8 l 28.7,241.1 c 248.6,11.2 522.6,18.3 817.5,18.3 221.3,0 454.2,-4 697.2,-13.3 l -32.2,-270"
         style="fill:#e0eaf6;fill-opacity:1;fill-rule:nonzero;stroke:none"
         transform="matrix(0.13333333,0,0,-0.13333333,0,5333.3333)" />
      <path
         id="path22"
         d="m 25459,12666.6 c -383.5,1550.1 -1559.1,1200.7 -2292.8,851.3 -322,-153.4 -558.9,-306.8 -606.3,-299.5 -155.2,23.9 -495.5,901.5 -1486.6,973.2 -562.4,40.6 -970.5,-127.7 -1262.5,-295.9 -273.8,-157.8 -445.5,-315.6 -546.6,-301.2 -209,29.9 -1988.2,1749.4 -3152.4,53.8 197,-1618 2139.9,-5874.6 2973.3,-7427.3 698.5,-1301.6 1009,-1683.7 1492.6,-1683.7 320.9,0 639.7,284.8 1161.1,1080.7 924.5,1410.9 3191.8,4959.6 3720.2,7048.6"
         style="fill:#ffe1b6;fill-opacity:1;fill-rule:nonzero;stroke:none"
         transform="matrix(0.13333333,0,0,-0.13333333,0,5333.3333)" />
      <path
         id="path23"
         d="m 19616.5,6435.6 c 0,0 512,-1059.6 878.1,-1059.6 729.1,0 2984.3,3937 3943.4,6101.5 601.7,1357.9 -534.6,2219.6 -1581.2,58.3 -227.5,-469.6 -1251.7,-2860.5 -2146.8,-4476.2 -503.8,-909.1 -737.1,-915.6 -1093.5,-624"
         style="fill:#f2b472;fill-opacity:1;fill-rule:nonzero;stroke:none"
         transform="matrix(0.13333333,0,0,-0.13333333,0,5333.3333)" />
      <path
         id="path24"
         d="m 20844.2,8706.6 c 0,0 249.9,2299.2 982.2,3960 0,0 -188,-2080.5 -982.2,-3960"
         style="fill:#f2b472;fill-opacity:1;fill-rule:nonzero;stroke:none"
         transform="matrix(0.13333333,0,0,-0.13333333,0,5333.3333)" />
      <path
         id="path25"
         d="m 18621.2,8603 c 0,0 -968,2012.6 -1185,3966.1 0,0 962.3,-1672 1185,-3966.1"
         style="fill:#f2b472;fill-opacity:1;fill-rule:nonzero;stroke:none"
         transform="matrix(0.13333333,0,0,-0.13333333,0,5333.3333)" />
      <path
         id="path26"
         d="m 19679.7,9503.7 c 0,0 -361.3,1182.9 -322.4,3004.2 0,0 401.8,-1166.5 322.4,-3004.2"
         style="fill:#f2b472;fill-opacity:1;fill-rule:nonzero;stroke:none"
         transform="matrix(0.13333333,0,0,-0.13333333,0,5333.3333)" />
      <path
         id="path27"
         d="m 18474.5,7434.9 c 232.7,-484.3 443.9,-903.3 610.6,-1213.9 698.5,-1301.6 1009,-1683.7 1492.6,-1683.7 320.9,0 639.7,284.8 1161.1,1080.7 243.5,371.5 580,891.3 953.3,1493.5 -1999.1,1798 -4217.6,323.4 -4217.6,323.4"
         style="fill:#424287;fill-opacity:1;fill-rule:nonzero;stroke:none"
         transform="matrix(0.13333333,0,0,-0.13333333,0,5333.3333)" />
      <path
         id="path28"
         d="m 18474.5,7434.9 c 232.7,-484.3 443.9,-903.3 610.6,-1213.9 698.5,-1301.6 1009,-1683.7 1492.6,-1683.7 320.9,0 639.7,284.8 1161.1,1080.7 243.5,371.5 580,891.3 953.3,1493.5 -1999.1,1798 -4217.6,323.4 -4217.6,323.4"
         style="fill:#424287;fill-opacity:1;fill-rule:nonzero;stroke:none"
         transform="matrix(0.13333333,0,0,-0.13333333,0,5333.3333)" />
      <path
         id="path29"
         d="m 20305.6,9933.6 c -3.3,0 -6.7,0 -10,0.1 -253.9,8.9 -447.9,354.9 -433.3,772.7 14.5,412.3 226.7,740.6 476.3,740.6 3.3,0 6.6,-0.1 10,-0.2 253.9,-8.9 447.9,-354.8 433.3,-772.6 -14.5,-412.4 -226.7,-740.6 -476.3,-740.6"
         style="fill:#fff6e9;fill-opacity:1;fill-rule:nonzero;stroke:none"
         transform="matrix(0.13333333,0,0,-0.13333333,0,5333.3333)" />
      <path
         id="path30"
         d="M 18613.8,7517.2 C 17698,9429 16424.6,12403 16270.6,13667.6 c -6.3,52 -11.9,107.2 -16.7,165.8 168.1,196.3 367.9,357.5 576.7,448 73.4,-641.2 230.7,-1384 442,-2168.3 59.5,73.6 125.6,137.2 197.7,189.2 224.6,-1557.5 876.3,-3092.7 1085.5,-3557.3 -50.8,-10.3 -102.2,-15.5 -153.2,-15.9 147.3,-376.7 297.6,-743.2 447.5,-1092.9 -95.8,-44.2 -175.4,-85.5 -236.3,-119 m -8.7,1239.3 c -195.2,1734.2 -801.4,3090.2 -1055.3,3596.9 74.1,42.3 153.6,72.9 237.9,90.6 55.5,11.6 111.3,17.2 167.1,17.2 611.6,0 1224.9,-678.6 1421.3,-1614 209.9,-999.7 -134.5,-1921.9 -771,-2090.7"
         style="fill:#fff6e9;fill-opacity:1;fill-rule:nonzero;stroke:none"
         transform="matrix(0.13333333,0,0,-0.13333333,0,5333.3333)" />
      <path
         id="path31"
         d="m 18555.8,8745 c -209.2,464.6 -860.9,1999.8 -1085.5,3557.3 25.8,18.5 52.3,35.6 79.5,51.1 253.9,-506.7 860.1,-1862.7 1055.3,-3596.9 -13.7,-3.6 -27.5,-6.9 -41.4,-9.8 -2.7,-0.6 -5.3,-1.2 -7.9,-1.7"
         style="fill:#fbe8d4;fill-opacity:1;fill-rule:nonzero;stroke:none"
         transform="matrix(0.13333333,0,0,-0.13333333,0,5333.3333)" />
      <path
         id="path32"
         d="m 20379.6,4730.8 c -303.4,110.5 -591,517.7 -1153.6,1565.9 -163.2,304.2 -375.8,727.1 -612.2,1220.5 60.9,33.5 140.5,74.8 236.3,119 577.9,-1347.8 1150.7,-2445.3 1529.5,-2905.4"
         style="fill:#c6c6db;fill-opacity:1;fill-rule:nonzero;stroke:none"
         transform="matrix(0.13333333,0,0,-0.13333333,0,5333.3333)" />
      <path
         id="path33"
         d="m 19981,6596 c -270.5,-84.2 -622.4,514.6 -631.8,631.9 -22.7,281.9 916.4,462.9 993.1,289.5 72.9,-164.8 -90.7,-837.1 -361.3,-921.4"
         style="fill:#565699;fill-opacity:1;fill-rule:nonzero;stroke:none"
         transform="matrix(0.13333333,0,0,-0.13333333,0,5333.3333)" />
      <path
         id="path34"
         d="m 22271.5,7441 c -371.6,251.3 -744.8,403.1 -1104.5,484.5 -153.1,-301.9 -306.9,-594.8 -457,-865.9 -503.8,-909.1 -737.1,-915.6 -1093.5,-624 0,0 512,-1059.6 878.1,-1059.6 347.5,0 1041.7,894.5 1776.9,2065"
         style="fill:#2a2a68;fill-opacity:1;fill-rule:nonzero;stroke:none"
         transform="matrix(0.13333333,0,0,-0.13333333,0,5333.3333)" />
      <path
         id="path35"
         d="M 22492.9,33366.1 C 20213,33366.1 18780.8,32025 18130.2,29295.6 17388,26181.4 15969.8,16138 16270.6,13667.6 16464.4,12076.7 18430,7779.9 19226,6296.7 c 682,-1270.6 959.9,-1599.4 1351.7,-1599.4 260.4,0 558,292.2 1027.3,1008.4 2205.2,3365.4 3544.2,5970.7 3770.4,7335.9 70.2,421.1 149.2,1228.8 268.8,2451.4 248.7,2542 665,6796.4 1503.9,12555.2 429.4,2947.6 -770.1,4749.4 -3468.8,5210.6 -418.3,71.5 -813.7,107.3 -1186.4,107.3 M 20577.7,4377.3 c -581.2,0 -933.3,463.3 -1633.6,1768 -740.9,1380.5 -2782.8,5772.4 -2991.1,7483.6 -304.2,2497.7 1119.7,12610 1865.9,15740.9 792.5,3325 2782.2,4739.6 5914.3,4204.4 1410.7,-241 2450.4,-835.6 3090.3,-1767.2 654.5,-952.7 870.3,-2232.9 641.3,-3804.9 C 26627,22250.7 26211.1,18001 25962.7,15461.9 25842.4,14232.8 25763,13420.8 25691,12989.1 25392,11184.5 23449.6,7936.9 21872.7,5530.3 c -550.7,-840.5 -901.7,-1153 -1295,-1153"
         style="fill:#320056;fill-opacity:1;fill-rule:nonzero;stroke:none"
         transform="matrix(0.13333333,0,0,-0.13333333,0,5333.3333)" />
      <path
         id="path36"
         d="m 27011.1,26311.6 c -2404.2,1208 -4806.4,1519.6 -6398.2,1568.3 -1728.4,52.6 -2902.3,-184.1 -2914,-186.5 l -64.7,313.4 c 48.8,10.1 1214.7,246.3 2978.4,193.2 1626.6,-48.7 4082,-366.4 6542.2,-1602.5 l -143.7,-285.9"
         style="fill:#320056;fill-opacity:1;fill-rule:nonzero;stroke:none"
         transform="matrix(0.13333333,0,0,-0.13333333,0,5333.3333)" />
      <path
         id="path37"
         d="m 27204.5,27753.7 c -2265.8,1368.8 -4641.3,1683.6 -6235.2,1706.6 -1732.4,24.9 -2943,-279.5 -2955,-282.6 l -79.5,310 c 50.5,12.9 1255.8,317.2 3028.5,292.7 1636.2,-22.4 4075.8,-344.8 6406.6,-1752.8 l -165.4,-273.9"
         style="fill:#320056;fill-opacity:1;fill-rule:nonzero;stroke:none"
         transform="matrix(0.13333333,0,0,-0.13333333,0,5333.3333)" />
      <path
         id="path38"
         d="m 19424,13586.8 -319.6,15.5 c 3.4,70.1 356.2,7093 1686.1,14452.6 l 314.9,-56.9 C 19779.3,20659.6 19427.4,13656.6 19424,13586.8"
         style="fill:#320056;fill-opacity:1;fill-rule:nonzero;stroke:none"
         transform="matrix(0.13333333,0,0,-0.13333333,0,5333.3333)" />
      <path
         id="path39"
         d="m 22719.3,13204.5 -318.8,27.7 c 8.5,97.3 854.2,9780.1 1689.7,14317.8 l 314.7,-57.9 C 23572.1,22969.3 22727.7,13301.7 22719.3,13204.5"
         style="fill:#320056;fill-opacity:1;fill-rule:nonzero;stroke:none"
         transform="matrix(0.13333333,0,0,-0.13333333,0,5333.3333)" />
      <path
         id="path40"
         d="m 22585.2,6992.5 c -787.4,708.1 -1699.8,977.1 -2711.9,799.5 -765.3,-134.3 -1305,-486.9 -1310.4,-490.4 l -176.9,266.6 c 23.7,15.8 591.8,388.7 1419.5,536.7 769.1,137.8 1912.9,97.5 2993.6,-874.5 l -213.9,-237.9"
         style="fill:#320056;fill-opacity:1;fill-rule:nonzero;stroke:none"
         transform="matrix(0.13333333,0,0,-0.13333333,0,5333.3333)" />
      <path
         id="path41"
         d="m 22536.6,13374.9 v 0 z m 2767.1,-746.7 c -122.7,495.8 -339.2,815.5 -643.6,950.4 -582,257.6 -1394.1,-179.9 -1784.4,-390.2 -194.9,-105.1 -260.7,-140.4 -340.1,-128.2 -104.9,16.2 -171.5,100.1 -281.9,239 -203.8,256.6 -544.8,686 -1192,732.8 -693.2,49.9 -1126.8,-237.7 -1414,-428.1 -162.6,-107.9 -280.1,-186.1 -406.1,-167.8 -72.7,10.4 -146.4,59.9 -307.7,168.4 -899.4,604.4 -1922.2,1071.6 -2690.2,-46.8 l -263.8,181.1 c 1050.9,1530.5 2563.2,514 3132.5,131.3 64.4,-43.3 136,-91.5 173.4,-112.2 40,16.5 119.5,69.2 185,112.7 303.9,201.4 812.7,538.5 1614,480.5 787.3,-56.9 1198.5,-574.7 1419.5,-852.9 26.9,-33.8 58,-73 82.2,-100.7 38.1,19.1 89.7,46.9 137.4,72.6 435.1,234.4 1340.5,722.5 2065.8,401 399.5,-176.9 677,-569.2 824.6,-1166.1 l -310.6,-76.8"
         style="fill:#320056;fill-opacity:1;fill-rule:nonzero;stroke:none"
         transform="matrix(0.13333333,0,0,-0.13333333,0,5333.3333)" />
      <path
         id="path42"
         d="m 23495.7,22816.2 c -111.3,-702.1 241.9,-1341.6 789,-1428.3 547.1,-86.7 1080.9,412.1 1192.2,1114.2 111.3,702.1 -242,1341.6 -789.1,1428.3 -547.1,86.8 -1080.8,-412.1 -1192.1,-1114.2"
         style="fill:#320056;fill-opacity:1;fill-rule:nonzero;stroke:none"
         transform="matrix(0.13333333,0,0,-0.13333333,0,5333.3333)" />
      <path
         id="path43"
         d="m 23931.6,23074.5 c -35.8,-225.5 77.7,-430.8 253.4,-458.7 175.7,-27.8 347.1,132.4 382.9,357.9 35.7,225.4 -77.7,430.8 -253.5,458.7 -175.7,27.8 -347.1,-132.4 -382.8,-357.9"
         style="fill:#ffffff;fill-opacity:1;fill-rule:nonzero;stroke:none"
         transform="matrix(0.13333333,0,0,-0.13333333,0,5333.3333)" />
      <path
         id="path44"
         d="m 24739.1,22068.6 c -7.2,0 -14.6,0.5 -21.9,1.7 -96.8,15.3 -159.3,128.5 -139.6,252.7 18.1,114.8 100.2,198.9 188.9,198.9 7.3,0 14.6,-0.6 22,-1.8 96.8,-15.3 159.3,-128.4 139.6,-252.7 -18.2,-114.8 -100.2,-198.9 -189,-198.8"
         style="fill:#84669a;fill-opacity:1;fill-rule:nonzero;stroke:none"
         transform="matrix(0.13333333,0,0,-0.13333333,0,5333.3333)" />
      <path
         id="path45"
         d="m 20126.1,23447.5 c -111.3,-702.1 -645.1,-1201 -1192.1,-1114.3 -547.2,86.8 -900.4,726.3 -789.1,1428.3 111.3,702.1 645,1201 1192.1,1114.3 547.1,-86.8 900.4,-726.2 789.1,-1428.3"
         style="fill:#320056;fill-opacity:1;fill-rule:nonzero;stroke:none"
         transform="matrix(0.13333333,0,0,-0.13333333,0,5333.3333)" />
      <path
         id="path46"
         d="m 19791.4,23827.9 c -35.7,-225.5 -207.1,-385.7 -382.8,-357.8 -175.7,27.8 -289.2,233.2 -253.4,458.7 35.7,225.5 207.1,385.7 382.8,357.8 175.7,-27.8 289.2,-233.2 253.4,-458.7"
         style="fill:#ffffff;fill-opacity:1;fill-rule:nonzero;stroke:none"
         transform="matrix(0.13333333,0,0,-0.13333333,0,5333.3333)" />
      <path
         id="path47"
         d="m 22691.3,22209.9 c -50.8,52.3 -494.1,-144.8 -1098.6,-77.6 -547.1,60.8 -777.8,261.2 -882.2,226.9 -104.4,-34.3 -286.5,-1207.5 89.9,-1708.6 361.4,-481 1159.5,-484.1 1574.4,7 450.6,533.2 367.2,1500.1 316.5,1552.3"
         style="fill:#320056;fill-opacity:1;fill-rule:nonzero;stroke:none"
         transform="matrix(0.13333333,0,0,-0.13333333,0,5333.3333)" />
      <path
         id="path48"
         d="m 20630.1,21044.3 c 35.6,-150 90.2,-287.1 170.3,-393.7 361.4,-481 1159.5,-484.1 1574.4,7 52.3,61.8 97.1,129.7 135.8,201.1 -214.9,588.9 -1208.9,866 -1880.5,185.6"
         style="fill:#ff97ad;fill-opacity:1;fill-rule:nonzero;stroke:none"
         transform="matrix(0.13333333,0,0,-0.13333333,0,5333.3333)" />
      <path
         id="path49"
         d="m 20799.5,22182.5 c -69,-261.1 -145.1,-1071.2 128.8,-1435.8 136.3,-181.4 359,-289.5 611.1,-296.7 274.8,-6.9 542,108.3 713.2,310.9 319.3,377.8 334.5,1028.7 311.4,1283.1 -14.5,-2.8 -29.2,-5.8 -43,-8.5 -201.1,-40.3 -537.7,-107.6 -946,-62.2 -343.9,38.2 -569,127.6 -718,186.7 -18.4,7.3 -38.6,15.3 -57.5,22.5 m 765.9,-2052.9 c -11.7,0 -23.4,0.1 -35.2,0.5 -349.9,10 -662.6,164.7 -857.7,424.4 -361.5,481.2 -268.9,1435.2 -169.4,1751.9 26.5,84.4 65.9,174.7 157.5,204.8 97.9,32.2 188.7,-3.9 314.4,-53.8 141,-55.9 334.2,-132.6 635.3,-166 359,-40 653.2,18.9 847.9,57.9 167.5,33.5 268.6,53.7 347.8,-27.9 137.8,-141.8 165.7,-1205.3 -309,-1767.1 -226,-267.5 -572.2,-424.7 -931.6,-424.7"
         style="fill:#320056;fill-opacity:1;fill-rule:nonzero;stroke:none"
         transform="matrix(0.13333333,0,0,-0.13333333,0,5333.3333)" />
      <path
         id="path50"
         d="m 25036.1,20522.2 c -18,-251.6 -300.5,-436.4 -631.1,-412.7 -330.5,23.6 -583.9,246.8 -565.9,498.4 18,251.6 300.6,436.4 631.1,412.7 330.6,-23.6 583.9,-246.8 565.9,-498.4"
         style="fill:#ef790f;fill-opacity:1;fill-rule:nonzero;stroke:none"
         transform="matrix(0.13333333,0,0,-0.13333333,0,5333.3333)" />
      <path
         id="path51"
         d="m 18820.7,21737.5 c -18,-251.6 -300.6,-436.4 -631.1,-412.7 -330.6,23.7 -583.9,246.8 -565.9,498.4 18,251.6 300.5,436.4 631.1,412.7 330.5,-23.6 583.9,-246.7 565.9,-498.4"
         style="fill:#ef790f;fill-opacity:1;fill-rule:nonzero;stroke:none"
         transform="matrix(0.13333333,0,0,-0.13333333,0,5333.3333)" />
      <path
         id="path52"
         d="m 20692.6,17564.9 c 0,0 -7760.1,420.9 -8145.2,447.8 -385.1,26.8 -585.1,173.1 -585.1,435.8 0,262.7 53.7,1432.2 53.7,1432.2 0,0 8627.4,-435.1 8830.4,-453 203,-17.9 271.6,-523.9 -104.5,-568.7 l -4.1,-676.2 c 234,-155.2 296.6,-528.4 -45.2,-617.9"
         style="fill:#ff5572;fill-opacity:1;fill-rule:nonzero;stroke:none"
         transform="matrix(0.13333333,0,0,-0.13333333,0,5333.3333)" />
      <path
         id="path53"
         d="m 15721.7,18496.3 -3111.2,177.1 c -112.8,6.4 -199.8,104 -193.4,216.7 l 17.2,301.4 c 6.4,112.8 103.9,199.8 216.7,193.4 l 3111.2,-177.1 c 112.8,-6.4 199.8,-104 193.4,-216.7 l -17.2,-301.4 c -6.4,-112.8 -103.9,-199.8 -216.7,-193.4"
         style="fill:#ff7190;fill-opacity:1;fill-rule:nonzero;stroke:none"
         transform="matrix(0.13333333,0,0,-0.13333333,0,5333.3333)" />
      <path
         id="path54"
         d="m 12016,19880.7 c 0,0 -5.5,-120.8 -13,-293.2 l 8336.2,-405.9 c 127.5,-6.2 234.4,95.6 234.4,223.3 v 38.5 c -1495.8,81.1 -8557.6,437.3 -8557.6,437.3"
         style="fill:#d3114d;fill-opacity:1;fill-rule:nonzero;stroke:none"
         transform="matrix(0.13333333,0,0,-0.13333333,0,5333.3333)" />
      <path
         id="path55"
         d="m 20929.1,17879.2 -8352,517 c -242,15 -452.9,170 -539.3,396.6 l -61,159.6 c -8.2,-218.6 -14.5,-414.1 -14.5,-503.9 0,-262.7 200,-409 585.1,-435.8 385.1,-26.9 8145.2,-447.8 8145.2,-447.8 184.7,48.4 251.1,179.5 236.5,314.3"
         style="fill:#d3114d;fill-opacity:1;fill-rule:nonzero;stroke:none"
         transform="matrix(0.13333333,0,0,-0.13333333,0,5333.3333)" />
      <path
         id="path56"
         d="m 12268.3,18501.6 c -54,36.6 -102.1,81.7 -142.3,133.7 7.5,256.8 24.7,667.3 36.8,944.5 l 146.7,-7.2 c -12.9,-295.3 -34.4,-801 -41.2,-1071"
         style="fill:#ffbbc7;fill-opacity:1;fill-rule:nonzero;stroke:none"
         transform="matrix(0.13333333,0,0,-0.13333333,0,5333.3333)" />
      <path
         id="path57"
         d="m 12309.5,19572.6 -146.7,7.2 c 2.1,49 4.1,93.8 5.9,132.9 48.3,-2.4 97.2,-4.9 146.7,-7.4 -1.6,-36.3 -3.6,-81.3 -5.9,-132.7"
         style="fill:#eda0b8;fill-opacity:1;fill-rule:nonzero;stroke:none"
         transform="matrix(0.13333333,0,0,-0.13333333,0,5333.3333)" />
      <path
         id="path58"
         d="m 12291.1,18224.6 c -168.8,66.8 -168.8,174.9 -168.8,223.9 0,41.5 1.4,106.7 3.7,186.8 40.2,-52 88.3,-97.1 142.3,-133.7 -1.4,-54.2 -2.2,-98.9 -2.2,-130.5 0,-53.7 8.4,-102.6 25,-146.5"
         style="fill:#eda0b8;fill-opacity:1;fill-rule:nonzero;stroke:none"
         transform="matrix(0.13333333,0,0,-0.13333333,0,5333.3333)" />
      <path
         id="path59"
         d="m 20741.9,18859 -3582.9,248.5 c -77.3,5.4 -144.5,-52.6 -150.5,-129.9 l -33.6,-436.1 c -6,-78.8 53.8,-147.3 132.7,-151.7 l 3630.2,-207 4.1,676.2"
         style="fill:#ffffff;fill-opacity:1;fill-rule:nonzero;stroke:none"
         transform="matrix(0.13333333,0,0,-0.13333333,0,5333.3333)" />
      <path
         id="path60"
         d="m 17234,18826.4 c 1.8,22.6 21.4,39.6 44,38 l 3462.5,-240.2 1.4,234.8 -3582.9,248.5 c -77.3,5.4 -144.5,-52.6 -150.5,-129.9 l -33.6,-436.1 c -6,-78.8 53.8,-147.2 132.7,-151.7 l 92.4,-5.3 34,441.9"
         style="fill:#b9d0ed;fill-opacity:1;fill-rule:nonzero;stroke:none"
         transform="matrix(0.13333333,0,0,-0.13333333,0,5333.3333)" />
      <path
         id="path61"
         d="m 12168.7,19712.7 c -14.7,-329.2 -46.4,-1066.2 -46.4,-1264.2 0,-67.2 0,-245.8 436.2,-276.2 368,-25.7 7606.5,-418.5 8115.2,-446.1 84.7,28.9 92.9,77.7 95.7,94.5 12.7,76.6 -38.9,175 -120.1,228.8 l -72,47.8 5.5,903.9 140.2,16.7 c 67.6,8 106.4,38.6 121.9,96.4 18.8,69.5 -5.5,135.7 -22.4,154.7 -301.2,20.9 -5675.3,293.5 -8653.8,443.7 m 8540.3,-2308.9 -25,1.3 c -316.9,17.2 -7765.8,421.3 -8147.7,448 -638.6,44.5 -734,392.2 -734,595.4 0,263.4 51.7,1391.6 53.9,1439.5 l 7.4,160.5 160.5,-8 c 352.4,-17.8 8632.7,-435.5 8836.4,-453.4 176.8,-15.7 307.6,-189.3 311,-412.9 2.6,-173.2 -81.4,-357.9 -270.4,-437.8 l -2.8,-476.6 c 140.2,-128.3 215.3,-319.6 186.7,-491.6 -29.4,-176.7 -157.6,-307.2 -351.8,-358.1 l -24.2,-6.3"
         style="fill:#320056;fill-opacity:1;fill-rule:nonzero;stroke:none"
         transform="matrix(0.13333333,0,0,-0.13333333,0,5333.3333)" />
      <path
         id="path62"
         d="m 20728.7,18023.1 -3630.2,206.9 c -81.4,4.6 -155.9,41 -209.5,102.4 -53.7,61.4 -79.8,140 -73.6,221.3 l 33.6,436.2 c 12.7,164.3 156.7,289.3 321.1,277.2 l 3582.9,-248.5 -22.2,-319.2 -3564.2,247.2 -30.7,-398.2 3611,-205.9 -18.2,-319.4"
         style="fill:#320056;fill-opacity:1;fill-rule:nonzero;stroke:none"
         transform="matrix(0.13333333,0,0,-0.13333333,0,5333.3333)" />
      <path
         id="path63"
         d="m 16493.1,17794.5 -319.6,15.5 90,1855.2 319.6,-15.5 -90,-1855.2"
         style="fill:#320056;fill-opacity:1;fill-rule:nonzero;stroke:none"
         transform="matrix(0.13333333,0,0,-0.13333333,0,5333.3333)" />
      <path
         id="path64"
         d="m 19721.5,18577.1 1021.9,-27.9 c 78.5,-3.4 75.8,-120.8 -3.3,-120 -2,-0.4 -1018.9,98 -1021.6,98 -31.2,2.9 -28.8,50.7 3,49.9"
         style="fill:#320056;fill-opacity:1;fill-rule:nonzero;stroke:none"
         transform="matrix(0.13333333,0,0,-0.13333333,0,5333.3333)" />
      <path
         id="path65"
         d="m 18265.7,18661.8 -1294.2,29.3 c -33.1,0.7 -59.4,28.2 -58.6,61.3 0.6,34.3 30.4,61.2 64.6,58.5 l 1290.7,-99.1 c 31.3,-2.4 29.7,-50.6 -2.5,-50"
         style="fill:#320056;fill-opacity:1;fill-rule:nonzero;stroke:none"
         transform="matrix(0.13333333,0,0,-0.13333333,0,5333.3333)" />
      <path
         id="path66"
         d="m 20195.8,19463.4 -8179.8,417.3 c 0,0 -632.8,-53 -674.6,335.1 -41.8,388.1 35.8,1779.2 35.8,1779.2 l 9020.9,-556.8 c 170.7,-105.9 212.4,-556.7 -250.3,-601.5 l -41.7,-774.4 c 298.5,-112.2 325.3,-467.4 89.7,-598.9"
         style="fill:#4dc4ff;fill-opacity:1;fill-rule:nonzero;stroke:none"
         transform="matrix(0.13333333,0,0,-0.13333333,0,5333.3333)" />
      <path
         id="path67"
         d="m 15080.1,20373.5 -2979.4,169.6 c -137.1,7.8 -242.8,126.3 -235,263.4 l 18.4,323.5 c 7.8,137.1 126.3,242.9 263.4,235.1 l 2979.4,-169.6 c 137.1,-7.8 242.8,-126.3 235,-263.4 l -18.4,-323.5 c -7.8,-137.1 -126.3,-242.9 -263.4,-235.1"
         style="fill:#73d7ff;fill-opacity:1;fill-rule:nonzero;stroke:none"
         transform="matrix(0.13333333,0,0,-0.13333333,0,5333.3333)" />
      <path
         id="path68"
         d="m 19079.8,21454.7 2.6,64.7 -7705.2,475.6 c 0,0 -8.6,-154.2 -18.5,-373.7 l 7438.3,-423.2 c 149.4,-8.5 276.8,107.1 282.8,256.6"
         style="fill:#4084f2;fill-opacity:1;fill-rule:nonzero;stroke:none"
         transform="matrix(0.13333333,0,0,-0.13333333,0,5333.3333)" />
      <path
         id="path69"
         d="m 11890.9,20290.7 c -148.8,10.2 -278.8,104.4 -334.9,242.7 l -218.3,538.2 c -10.2,-343.9 -14.1,-690.7 3.7,-855.8 41.8,-388.1 674.6,-335.1 674.6,-335.1 l 8179.8,-417.3 c 97.5,54.4 149.3,147.1 156.3,245.1 l -8461.2,582.2"
         style="fill:#4084f2;fill-opacity:1;fill-rule:nonzero;stroke:none"
         transform="matrix(0.13333333,0,0,-0.13333333,0,5333.3333)" />
      <path
         id="path70"
         d="m 11603.9,19927.7 c -0.1,0.1 -0.3,0.1 -0.4,0.1 0.1,0 0.2,0 0.4,-0.1 m -1.1,0.4 c -0.3,0.1 -0.6,0.2 -0.9,0.3 0.3,-0.1 0.6,-0.2 0.9,-0.3 m -1.2,0.4 c -119.2,41.7 -225.1,116.9 -254.4,251.1 12.7,-58 39.7,-105 75.8,-143 47.6,-49.9 110.9,-84.4 178.6,-108.1 m -254.4,251.1 c -0.1,0.6 -0.2,1.1 -0.3,1.7 0.1,-0.6 0.2,-1.1 0.3,-1.7 m -0.3,1.7 c -0.2,0.6 -0.3,1.1 -0.4,1.6 0.1,-0.5 0.2,-1.1 0.4,-1.6 m -0.4,1.7 c -0.5,2.2 -0.9,4.4 -1.3,6.7 0.4,-2.3 0.9,-4.5 1.3,-6.7 m -1.3,6.7 c -0.1,0.5 -0.2,1.1 -0.3,1.6 0.1,-0.5 0.2,-1.1 0.3,-1.6 m -0.4,1.9 c 0,0.4 -0.1,0.9 -0.2,1.3 0.1,-0.4 0.2,-0.9 0.2,-1.3 m -0.3,1.7 c 0,0.5 -0.1,0.8 -0.2,1.2 0.1,-0.4 0.2,-0.7 0.2,-1.2 m -0.3,1.7 c 0,0.4 -0.1,0.8 -0.1,1.2 0,-0.4 0.1,-0.8 0.1,-1.2 m -0.2,1.7 c -0.1,0.4 -0.2,0.8 -0.2,1.2 0,-0.4 0.1,-0.8 0.2,-1.2 m -0.3,1.7 c -0.1,0.4 -0.1,0.8 -0.2,1.3 0.1,-0.5 0.1,-0.9 0.2,-1.3 m -0.3,1.6 c -0.1,1.1 -0.3,2.2 -0.5,3.3 0.2,-1.1 0.4,-2.2 0.5,-3.3 m -0.5,3.9 c -0.1,0.3 -0.1,0.7 -0.2,1.1 0.1,-0.4 0.1,-0.8 0.2,-1.1 m -0.3,1.7 c 0,0.4 -0.1,0.7 -0.1,1.1 0,-0.4 0.1,-0.8 0.1,-1.1 m -0.2,1.7 c 0,0.4 -0.1,0.7 -0.1,1 0,-0.3 0,-0.6 0.1,-1 m -0.2,1.7 c -0.1,0.4 -0.1,0.7 -0.1,1 0,-0.3 0,-0.6 0.1,-1 m -0.2,1.7 c -0.1,0.4 -0.1,0.7 -0.2,1.1 0.1,-0.4 0.1,-0.7 0.2,-1.1 m -0.2,1.7 c -0.1,0.4 -0.1,0.7 -0.2,1.1 0.1,-0.4 0.1,-0.7 0.2,-1.1 m -0.2,1.7 c -0.1,0.6 -0.2,1.1 -0.2,1.7 v 0 0 c 0,-0.6 0.1,-1.1 0.2,-1.7 m -0.3,2.7 c 0,0.2 -0.1,0.3 -0.1,0.5 0,-0.2 0.1,-0.4 0.1,-0.5 m -0.2,1.2 v 0.2 c 0,-0.1 0,-0.2 0,-0.2 m -0.1,1.1 c 0,0 0,0.2 0,0.3 0,-0.1 0,-0.2 0,-0.3 m -0.1,1.2 v 0.1 -0.1 m -0.4,3.6 v 0 0 m -0.2,2.3 c 0,0 0,0 0,0.1 v -0.1 m -0.5,4.8 v 0 0 m -1.3,14.9 c 0,0.1 0,0.1 0,0.1 v -0.1 m -0.2,2.6 v 0 0 m -1,13.1 v 0.2 c 0,-0.1 0,-0.2 0,-0.2 m -0.1,1.2 c 0,0.1 0,0.2 0,0.3 0,-0.1 0,-0.2 0,-0.3 m -0.1,1.4 c 0,0.1 0,0.2 0,0.2 0,-0.1 0,-0.1 0,-0.2 m -0.2,2.7 c 0,0.2 0,0.4 0,0.6 0,-0.2 0,-0.4 0,-0.6 m -0.1,1.4 c 0,0.1 0,0.3 0,0.5 0,-0.2 0,-0.4 0,-0.5 m 0,1.1 c -0.1,0.3 -0.1,0.5 -0.1,0.8 0,-0.3 0,-0.5 0.1,-0.8 m -0.1,1.2 c 0,0.3 -0.1,0.6 -0.1,0.9 0,-0.3 0.1,-0.6 0.1,-0.9 m -0.1,1.1 c 0,0.3 0,0.7 -0.1,1 0.1,-0.3 0.1,-0.7 0.1,-1 m -0.1,1.3 c -5.3,79.2 -7.5,183.5 -7.5,301.8 0,-104.3 1.7,-197.8 5.8,-272.8 0,0 0,0 0,-0.1 0,-0.4 0,-0.8 0,-1.2 0,0 0,-0.1 0.1,-0.1 0,-0.3 0,-0.6 0,-0.9 0,-0.4 0,-0.8 0.1,-1.2 0,-0.1 0,-0.3 0,-0.4 0,-0.9 0.1,-1.8 0.1,-2.6 0,-0.2 0,-0.2 0.1,-0.3 0.4,-7.6 0.8,-15 1.3,-22.2"
         style="fill:#ffe3ec;fill-opacity:1;fill-rule:nonzero;stroke:none"
         transform="matrix(0.13333333,0,0,-0.13333333,0,5333.3333)" />
      <path
         id="path71"
         d="m 20400.1,21437 v 0 0 m -1,0.6 v 0 0"
         style="fill:#fff3c2;fill-opacity:1;fill-rule:nonzero;stroke:none"
         transform="matrix(0.13333333,0,0,-0.13333333,0,5333.3333)" />
      <path
         id="path72"
         d="m 11617.4,19923.2 c -0.3,0.1 -0.5,0.2 -0.8,0.3 0.3,-0.1 0.5,-0.2 0.8,-0.3 m -1.1,0.4 c -4.2,1.3 -8.3,2.7 -12.4,4.1 -0.2,0.1 -0.3,0.1 -0.4,0.1 -0.2,0.1 -0.5,0.2 -0.7,0.3 -0.3,0.1 -0.6,0.2 -0.9,0.3 -0.1,0 -0.2,0.1 -0.3,0.1 -67.7,23.7 -131,58.2 -178.6,108.1 51,-53.5 120.2,-89.3 193.3,-113 m -281.1,371.6 c -0.1,0.1 -0.1,0.1 -0.1,0.3 0,-0.1 0,-0.2 0.1,-0.3 m -0.2,2.9 c 0,0.1 0,0.3 0,0.4 0,-0.1 0,-0.3 0,-0.4 m -0.1,1.6 c 0,0.3 0,0.6 0,0.9 0,-0.3 0,-0.6 0,-0.9 m -0.1,1 c 0,0.4 0,0.8 0,1.2 0,-0.4 0,-0.8 0,-1.2 m 0,1.3 c -4.1,75 -5.8,168.5 -5.8,272.8 0,409 26.1,984.4 39.9,1260.4 v 0 c -3,-59.1 -6.5,-132 -10.2,-213.9 l 329.1,-18.7 c -15.7,-338.3 -36.3,-867.3 -31.2,-1212.7 -43.2,38.9 -77.9,87.6 -100.6,143.5 l -218.3,538.2 c -8.7,-292.2 -12.8,-586.4 -2.9,-769.6 m 9119,1083.7 -1373.4,84.8 2,48.9 1315.7,-81.2 c 0.4,-0.2 0.7,-0.4 1,-0.6 v 0 c 0.3,-0.2 0.6,-0.4 1,-0.6 v 0 c 19.9,-12.8 38,-30.3 53.7,-51.3"
         style="fill:#b8e7ff;fill-opacity:1;fill-rule:nonzero;stroke:none"
         transform="matrix(0.13333333,0,0,-0.13333333,0,5333.3333)" />
      <path
         id="path73"
         d="m 19080.4,21470.5 -91.9,5.7 c 15.4,14.4 29.8,29.9 43.2,46.3 l 50.7,-3.1 -2,-48.9 m -7392.6,132.1 -329.1,18.7 c 3.7,81.9 7.2,154.8 10.2,213.9 l 329.2,-20.4 c -2.8,-54.9 -6.4,-127.6 -10.3,-212.2"
         style="fill:#b3cefa;fill-opacity:1;fill-rule:nonzero;stroke:none"
         transform="matrix(0.13333333,0,0,-0.13333333,0,5333.3333)" />
      <path
         id="path74"
         d="m 11877.6,19879.8 c -75,3.6 -170.5,14.5 -260.2,43.4 -0.3,0.1 -0.5,0.2 -0.8,0.3 -0.1,0 -0.2,0 -0.3,0.1 -73.1,23.7 -142.3,59.5 -193.3,113 -36.1,38 -63.1,85 -75.8,143 v 0 c -0.1,0.6 -0.2,1.1 -0.3,1.7 v 0 c -0.2,0.5 -0.3,1.1 -0.4,1.6 v 0.1 c -0.4,2.2 -0.9,4.4 -1.3,6.7 v 0 c -0.1,0.5 -0.2,1.1 -0.3,1.6 0,0.1 0,0.2 -0.1,0.3 0,0.4 -0.1,0.9 -0.2,1.3 0,0.1 0,0.3 -0.1,0.4 0,0.5 -0.1,0.8 -0.2,1.2 0,0.2 0,0.4 -0.1,0.5 0,0.4 -0.1,0.8 -0.1,1.2 -0.1,0.2 -0.1,0.3 -0.1,0.5 -0.1,0.4 -0.2,0.8 -0.2,1.2 0,0.1 -0.1,0.3 -0.1,0.5 -0.1,0.4 -0.1,0.8 -0.2,1.3 0,0.1 0,0.2 -0.1,0.3 -0.1,1.1 -0.3,2.2 -0.5,3.3 0,0.2 0,0.4 0,0.6 -0.1,0.3 -0.1,0.7 -0.2,1.1 0,0.2 0,0.4 -0.1,0.6 0,0.3 -0.1,0.7 -0.1,1.1 0,0.2 -0.1,0.4 -0.1,0.6 -0.1,0.4 -0.1,0.7 -0.1,1 -0.1,0.3 -0.1,0.5 -0.1,0.7 -0.1,0.4 -0.1,0.7 -0.1,1 -0.1,0.3 -0.1,0.5 -0.1,0.7 -0.1,0.4 -0.1,0.7 -0.2,1.1 0,0.2 0,0.4 0,0.6 -0.1,0.4 -0.1,0.7 -0.2,1.1 0,0.2 0,0.4 0,0.6 -0.1,0.6 -0.2,1.1 -0.2,1.7 v 0 c -0.1,0.3 -0.1,0.7 -0.1,1 0,0.1 -0.1,0.3 -0.1,0.5 0,0.2 0,0.4 -0.1,0.7 0,0 0,0.1 0,0.2 0,0.3 0,0.6 -0.1,0.9 0,0.1 0,0.2 0,0.3 0,0.3 -0.1,0.6 -0.1,0.9 v 0.1 c -0.1,1.2 -0.2,2.3 -0.4,3.5 v 0 c 0,0.8 -0.1,1.5 -0.2,2.3 v 0.1 c -0.2,1.6 -0.3,3.1 -0.5,4.7 v 0 c -0.4,4.9 -0.8,9.8 -1.3,14.9 v 0.1 c 0,0.8 -0.1,1.7 -0.2,2.5 v 0 c -0.3,4.3 -0.7,8.6 -1,13.1 0,0 0,0.1 0,0.2 0,0.3 0,0.7 -0.1,1 0,0.1 0,0.2 0,0.3 0,0.4 0,0.7 -0.1,1.1 0,0.1 0,0.1 0,0.2 0,0.8 -0.1,1.7 -0.2,2.5 0,0.2 0,0.4 0,0.6 0,0.2 0,0.5 -0.1,0.8 0,0.1 0,0.3 0,0.5 0,0.2 0,0.4 0,0.6 -0.1,0.3 -0.1,0.5 -0.1,0.8 0,0.1 0,0.3 0,0.4 0,0.3 -0.1,0.6 -0.1,0.9 0,0.1 0,0.2 0,0.2 0,0.3 0,0.7 -0.1,1 0,0.1 0,0.2 0,0.3 -0.5,7.2 -0.9,14.6 -1.3,22.2 -0.1,0.1 -0.1,0.2 -0.1,0.3 0,0.8 -0.1,1.7 -0.1,2.6 0,0.1 0,0.3 0,0.4 -0.1,0.4 -0.1,0.8 -0.1,1.2 0,0.3 0,0.6 0,0.9 -0.1,0 -0.1,0.1 -0.1,0.1 0,0.4 0,0.8 0,1.2 0,0.1 0,0.1 0,0.1 -9.9,183.2 -5.8,477.4 2.9,769.6 l 218.3,-538.2 c 22.7,-55.9 57.4,-104.6 100.6,-143.5 1.5,-99.2 5.1,-183.3 11.6,-243.3 14.7,-136.2 102.1,-217.9 209.4,-266.8"
         style="fill:#b3cefa;fill-opacity:1;fill-rule:nonzero;stroke:none"
         transform="matrix(0.13333333,0,0,-0.13333333,0,5333.3333)" />
      <path
         id="path75"
         d="m 20106.1,20062.3 -3576.6,193.2 c -82.5,4.5 -146.2,74.2 -143.3,156.8 l 18.5,513.2 c 3.1,85.4 76.1,151.4 161.4,145.8 l 3581.7,-234.6 -41.7,-774.4"
         style="fill:#ffffff;fill-opacity:1;fill-rule:nonzero;stroke:none"
         transform="matrix(0.13333333,0,0,-0.13333333,0,5333.3333)" />
      <path
         id="path76"
         d="m 16679.9,20730.4 c 1,26.4 23.6,46.8 49.9,45.1 l 3402.7,-222.9 15.3,284.1 -3581.7,234.6 c -85.3,5.6 -158.3,-60.4 -161.4,-145.8 l -18.5,-513.2 c -2.9,-82.6 60.8,-152.3 143.3,-156.8 l 133.1,-7.2 17.3,482.1"
         style="fill:#b9d0ed;fill-opacity:1;fill-rule:nonzero;stroke:none"
         transform="matrix(0.13333333,0,0,-0.13333333,0,5333.3333)" />
      <path
         id="path77"
         d="m 12013.4,20041 10.8,-0.5 8125.2,-414.6 c 43.7,40.9 45.5,93.6 43.8,117.1 -5.6,74.5 -59.2,137.9 -143.4,169.5 l -109.8,41.3 55.5,1028.9 136.9,13.3 c 126.5,12.2 200.4,60.6 219.8,143.7 13.1,55.9 -2.5,112.1 -20.8,142.3 l -8802.8,543.3 c -18.7,-375.1 -59.8,-1298.2 -28.1,-1592.4 23.8,-220.8 497.8,-193.2 502.5,-192.8 z m 8220.1,-739.8 -8215.3,419.2 c -294.4,-21.9 -790.3,54.6 -835.9,478.2 -42.7,396.6 32,1747.9 35.2,1805.3 l 8.9,160.7 9221.9,-569.2 34.2,-21.3 c 149.3,-92.7 227.3,-310.7 181.4,-507.2 -41.6,-178 -173.6,-307.6 -363,-363.3 l -29.4,-545.8 c 139.4,-88.6 228.8,-230.5 240.8,-390.9 13.7,-183.6 -77.7,-353.5 -238.6,-443.3 l -40.2,-22.4"
         style="fill:#320056;fill-opacity:1;fill-rule:nonzero;stroke:none"
         transform="matrix(0.13333333,0,0,-0.13333333,0,5333.3333)" />
      <path
         id="path78"
         d="m 20097.4,19902.5 -3576.6,193.3 c -168.4,9 -300.5,153.6 -294.5,322.2 l 18.5,513.3 c 3.1,84.9 39.5,163 102.5,220 63.1,57 144.5,85 229.3,79.7 l 3581.7,-234.6 -20.9,-319.3 -3573.1,234 -17.9,-496.3 3568.3,-192.7 -17.3,-319.6"
         style="fill:#320056;fill-opacity:1;fill-rule:nonzero;stroke:none"
         transform="matrix(0.13333333,0,0,-0.13333333,0,5333.3333)" />
      <path
         id="path79"
         d="m 15925.9,19681.8 -319.6,15.1 96.3,2028.8 319.6,-15.1 -96.3,-2028.8"
         style="fill:#320056;fill-opacity:1;fill-rule:nonzero;stroke:none"
         transform="matrix(0.13333333,0,0,-0.13333333,0,5333.3333)" />
      <path
         id="path80"
         d="m 18882.3,20538.7 1247.2,-61.1 c 78.4,-5 73.3,-122.4 -5.8,-119.9 -0.2,-0.4 -1244.9,118.2 -1246,118.1 -39.6,3.8 -36,64.8 4.6,62.9"
         style="fill:#320056;fill-opacity:1;fill-rule:nonzero;stroke:none"
         transform="matrix(0.13333333,0,0,-0.13333333,0,5333.3333)" />
      <path
         id="path81"
         d="m 17613.6,20555 -1222.4,69.2 c -78.3,5.7 -72.3,123 6.8,119.9 0.3,0.4 1219.6,-126.4 1220.7,-126.3 39.6,-4.1 35.5,-65 -5.1,-62.8"
         style="fill:#320056;fill-opacity:1;fill-rule:nonzero;stroke:none"
         transform="matrix(0.13333333,0,0,-0.13333333,0,5333.3333)" />
      <path
         id="path82"
         d="m 18795.1,21537.1 -7417.9,457.9 c 0,0 -583.1,43 -703.8,52.2 -409.7,31.4 -499.2,250.8 -499.2,512.7 0,176.8 18.3,823.4 30.2,1225.3 6.1,202.7 126.1,384.5 310.1,469.6 l 8504.8,-524 c 209.1,-99.9 244.9,-523.8 -185,-613.4 l -53.7,-985.1 c 286.6,-104.5 250.8,-492.6 14.5,-595.2"
         style="fill:#ffd527;fill-opacity:1;fill-rule:nonzero;stroke:none"
         transform="matrix(0.13333333,0,0,-0.13333333,0,5333.3333)" />
      <path
         id="path83"
         d="m 19019.3,23730.8 -8504.8,524 c -149.3,-69 -256.4,-201.8 -294.8,-357.6 l 8948.9,-456.4 c 9.8,122.7 -50.3,242.7 -149.3,290"
         style="fill:#ff9429;fill-opacity:1;fill-rule:nonzero;stroke:none"
         transform="matrix(0.13333333,0,0,-0.13333333,0,5333.3333)" />
      <path
         id="path84"
         d="m 10401.3,22711.2 -214.5,451.5 c -7,-264 -12.6,-505.1 -12.6,-602.8 0,-261.9 89.5,-481.3 499.2,-512.7 120.7,-9.2 703.8,-52.2 703.8,-52.2 l 7417.9,-457.9 c 104.8,45.6 169.9,147.3 185.2,255.6 l -8187.8,649 c -169.2,13.5 -318.3,116.2 -391.2,269.5"
         style="fill:#ff9429;fill-opacity:1;fill-rule:nonzero;stroke:none"
         transform="matrix(0.13333333,0,0,-0.13333333,0,5333.3333)" />
      <path
         id="path85"
         d="m 10513.4,22561.3 c -46.2,41.4 -84.6,92 -112.1,149.9 l -62.5,131.5 c 6.4,279.1 17.8,675.8 25.6,937.8 1.1,37.6 7.7,74 19.1,108.4 l 188.7,-9.6 c -17.4,-50.4 -27.4,-103.8 -29,-158.8 -10.8,-361.9 -26.7,-922.2 -29.8,-1159.2"
         style="fill:#ffeea9;fill-opacity:1;fill-rule:nonzero;stroke:none"
         transform="matrix(0.13333333,0,0,-0.13333333,0,5333.3333)" />
      <path
         id="path86"
         d="m 10572.2,23879.3 -188.7,9.6 c 28.3,84.9 86.4,157.2 165.3,203.5 l 150.9,-9.3 c -57.3,-57.3 -101,-127 -127.5,-203.8"
         style="fill:#ffd4a9;fill-opacity:1;fill-rule:nonzero;stroke:none"
         transform="matrix(0.13333333,0,0,-0.13333333,0,5333.3333)" />
      <path
         id="path87"
         d="m 10563.8,22224.4 c -189.8,44.5 -229.6,157.1 -229.6,335.6 0,54.8 1.8,156.8 4.6,282.7 l 62.5,-131.5 c 27.5,-57.9 65.9,-108.5 112.1,-149.9 -0.3,-26.2 -0.5,-48.4 -0.5,-66 0,-99 12.8,-191.9 50.9,-270.9"
         style="fill:#ffd4a9;fill-opacity:1;fill-rule:nonzero;stroke:none"
         transform="matrix(0.13333333,0,0,-0.13333333,0,5333.3333)" />
      <path
         id="path88"
         d="m 18780.6,22132.3 -3704.4,236.2 c -74.8,4.8 -132.1,68.5 -129,143.4 l 30.3,721.1 c 3.2,77.4 69.6,136.9 146.9,131.8 l 3709.9,-247.4"
         style="fill:#ffffff;fill-opacity:1;fill-rule:nonzero;stroke:none"
         transform="matrix(0.13333333,0,0,-0.13333333,0,5333.3333)" />
      <path
         id="path89"
         d="m 15289,22971 c 1.9,45.5 40.9,80.5 86.3,77.5 l 3442.8,-229.5 16.2,298.4 -3709.9,247.4 c -77.3,5.1 -143.7,-54.4 -146.9,-131.8 l -30.3,-721.1 c -3.1,-74.9 54.2,-138.6 129,-143.4 l 187,-11.9 25.8,614.4"
         style="fill:#b9d0ed;fill-opacity:1;fill-rule:nonzero;stroke:none"
         transform="matrix(0.13333333,0,0,-0.13333333,0,5333.3333)" />
      <path
         id="path90"
         d="m 10548.8,24092.4 c -110.9,-65 -180.6,-181.5 -184.4,-311.9 -11.3,-380.1 -30.2,-1044.1 -30.2,-1220.5 0,-211.7 56,-330.7 351.4,-353.3 120.6,-9.2 703.4,-52.2 703.4,-52.2 l 7369.5,-454.8 c 46.7,35.2 66.9,97.6 65.4,147.3 -1.4,45.8 -19.5,106.3 -98.1,135 l -111.4,40.6 66.9,1226.4 120.4,25.1 c 123,25.6 196.5,86.9 206.8,172.6 6.5,53.5 -13.7,102.1 -40,127 l -8419.7,518.7 m 8274.8,-2717.3 -38.4,2.3 -7417.9,457.9 c -1.9,0.1 -585.4,43.2 -706.1,52.4 -429.3,32.9 -647.1,259 -647.1,672.3 0,171.5 16.6,763.5 30.4,1229.9 7.9,265 162.2,498.8 402.8,610.1 l 36.7,16.9 40.3,-2.4 8535.9,-525.9 28.1,-13.4 c 163.9,-78.3 261.7,-270.3 237.9,-466.9 -22.8,-188.8 -146.4,-336.7 -338.2,-411.8 l -42.1,-770.8 c 120,-82.9 193.3,-216.1 197.9,-369.1 6,-202.2 -108.5,-389.6 -285,-466.2 l -35.2,-15.3"
         style="fill:#320056;fill-opacity:1;fill-rule:nonzero;stroke:none"
         transform="matrix(0.13333333,0,0,-0.13333333,0,5333.3333)" />
      <path
         id="path91"
         d="m 18770.4,21972.7 -3704.4,236.1 c -160.4,10.3 -285.4,149.3 -278.6,309.8 l 30.2,721 c 3.4,81 38.5,155.3 98.8,209.4 60.2,54 137.8,81.2 218.7,75.4 l 3709.9,-247.3 -21.3,-319.3 -3687.3,245.8 -28.4,-676.8 3682.8,-234.8 -20.4,-319.3"
         style="fill:#320056;fill-opacity:1;fill-rule:nonzero;stroke:none"
         transform="matrix(0.13333333,0,0,-0.13333333,0,5333.3333)" />
      <path
         id="path92"
         d="m 14498.8,21803 -319.5,18.3 126.6,2199.3 319.5,-18.4 -126.6,-2199.2"
         style="fill:#320056;fill-opacity:1;fill-rule:nonzero;stroke:none"
         transform="matrix(0.13333333,0,0,-0.13333333,0,5333.3333)" />
      <path
         id="path93"
         d="m 18074.5,22695.2 736.9,-22.1 c 78.7,-3.6 75.5,-121.1 -3.6,-120.1 -6.3,0 -730.8,90.3 -737.2,90.8 -31.8,3.9 -28.3,52.3 3.9,51.4"
         style="fill:#320056;fill-opacity:1;fill-rule:nonzero;stroke:none"
         transform="matrix(0.13333333,0,0,-0.13333333,0,5333.3333)" />
      <path
         id="path94"
         d="m 16322.3,22774.2 -1363.2,61.9 c -33.1,1.5 -58.7,29.6 -57.2,62.7 1.4,34.2 31.6,60.4 65.7,57 l 1358.3,-130.2 c 32.2,-3.1 29.6,-52.8 -3.6,-51.4"
         style="fill:#320056;fill-opacity:1;fill-rule:nonzero;stroke:none"
         transform="matrix(0.13333333,0,0,-0.13333333,0,5333.3333)" />
      <path
         id="path95"
         d="m 17236.1,22768 c 163.3,17 325.2,8.3 482.3,-41.8 21.3,-6.7 18,-39.9 -3.9,-42.5 -163.5,-20.9 -324.3,-0.3 -481.9,45.9 -19.6,5.8 -16.6,36.4 3.5,38.4"
         style="fill:#320056;fill-opacity:1;fill-rule:nonzero;stroke:none"
         transform="matrix(0.13333333,0,0,-0.13333333,0,5333.3333)" />
      <path
         id="path96"
         d="m 13677.2,22581.3 -2644.3,150.5 c -161.4,9.2 -285.9,148.7 -276.7,310 l 16.7,293.3 c 9.2,161.3 148.7,285.8 310,276.6 l 2644.3,-150.5 c 161.4,-9.2 285.9,-148.7 276.7,-310 l -16.7,-293.3 c -9.2,-161.3 -148.7,-285.8 -310,-276.6"
         style="fill:#ffe576;fill-opacity:1;fill-rule:nonzero;stroke:none"
         transform="matrix(0.13333333,0,0,-0.13333333,0,5333.3333)" />
      <path
         id="path97"
         d="m 10514.5,24254.8 c 0,0 -309,35.8 -340.3,367.2 -16.5,174.4 26,1059.2 56.8,1637.8 15,282.8 256.1,499.8 538.8,485.2 l 8254.8,-426.3 c 190.4,-142.9 169.3,-552.1 -190.3,-598.1 l -53.7,-1349.4 c 232.8,-83.5 362.8,-400 98.9,-631.7 l -8365,515.3"
         style="fill:#ff903e;fill-opacity:1;fill-rule:nonzero;stroke:none"
         transform="matrix(0.13333333,0,0,-0.13333333,0,5333.3333)" />
      <path
         id="path98"
         d="m 13723,24915.8 -2697.4,153.6 c -164.1,9.3 -290.8,151.3 -281.5,315.4 l 27.1,475.9 c 9.4,164.1 151.3,290.8 315.5,281.5 l 2697.3,-153.6 c 164.2,-9.3 290.9,-151.3 281.5,-315.4 l -27.1,-475.9 c -9.3,-164.1 -151.3,-290.8 -315.4,-281.5"
         style="fill:#ffae43;fill-opacity:1;fill-rule:nonzero;stroke:none"
         transform="matrix(0.13333333,0,0,-0.13333333,0,5333.3333)" />
      <path
         id="path99"
         d="m 19025.6,24037.8 -8102.6,615.9 c -227.2,17.2 -426.6,157.9 -519.1,366.2 l -210.5,474.1 v 0 c -17.6,-400.6 -29.2,-766.4 -19.2,-872 31.3,-331.4 340.3,-367.2 340.3,-367.2 l 8365,-515.3 c 105.6,92.6 148,198.8 146.1,298.3"
         style="fill:#ce5011;fill-opacity:1;fill-rule:nonzero;stroke:none"
         transform="matrix(0.13333333,0,0,-0.13333333,0,5333.3333)" />
      <path
         id="path100"
         d="m 10330.2,24331.5 c -71.3,52.2 -139.6,139 -155.2,282.7 15.6,-143.5 84,-230.4 155.3,-282.6 -0.1,-0.1 -0.1,-0.1 -0.1,-0.1 m -155.3,283 c 0,0.5 -0.1,1 -0.1,1.4 0,-0.4 0.1,-0.9 0.1,-1.4 m -0.2,2 c 0,0.4 -0.1,0.8 -0.1,1.3 0,-0.4 0.1,-0.9 0.1,-1.3 m -0.2,1.9 c 0,0.4 -0.1,0.8 -0.1,1.3 0,-0.5 0.1,-0.9 0.1,-1.3 m -0.2,1.8 c 0,0.6 -0.1,1.2 -0.1,1.8 v 0 0 0 c 0,-0.6 0.1,-1.2 0.1,-1.8 m -3.7,156.3 c 0,0.2 0,0.3 0,0.5 0,-0.1 0,-0.2 0,-0.3 v -0.1 c 0,-0.1 0,-0.1 0,-0.1 m 0,1.2 c 1.8,311.9 32.5,952.3 57.3,1423.5 -24.7,-468.4 -55.1,-1104 -57.3,-1418 v -0.1 c 0,-0.9 0,-1.8 0,-2.6 0,-0.1 0,-0.2 0,-0.2 0,-0.9 0,-1.7 0,-2.5 0,-0.1 0,-0.1 0,-0.1 m 60.4,1482.1 c 0,1.3 0.1,2.5 0.2,3.8 -0.1,-1.3 -0.2,-2.5 -0.2,-3.8 m 0.6,9.6 c 19.2,268.9 243.2,476 510.8,476.3 -267.6,-0.3 -491.6,-207.4 -510.8,-476.3"
         style="fill:#ffe3ec;fill-opacity:1;fill-rule:nonzero;stroke:none"
         transform="matrix(0.13333333,0,0,-0.13333333,0,5333.3333)" />
      <path
         id="path101"
         d="m 19029.6,26314.9 c -0.1,0 -0.2,0.1 -0.3,0.2 0.1,-0.1 0.2,-0.2 0.3,-0.2 m -1,0.7 c -0.1,0.1 -0.2,0.2 -0.3,0.3 0.1,-0.1 0.2,-0.2 0.3,-0.3 m -0.9,0.8 c -0.2,0.1 -0.4,0.2 -0.5,0.3 0.1,-0.1 0.3,-0.2 0.5,-0.3 m -1,0.7 c -0.2,0.2 -0.4,0.3 -0.6,0.5 0.2,-0.2 0.4,-0.3 0.6,-0.5 m -1.1,0.8 c -0.3,0.3 -0.6,0.5 -1,0.8 0.4,-0.3 0.7,-0.5 1,-0.8"
         style="fill:#fff3c2;fill-opacity:1;fill-rule:nonzero;stroke:none"
         transform="matrix(0.13333333,0,0,-0.13333333,0,5333.3333)" />
      <path
         id="path102"
         d="m 10438,24274.6 c -31.9,11.5 -70.3,29.4 -107.8,56.9 0,0 0,0 0.1,0.1 37.5,-27.6 75.8,-45.5 107.7,-57"
         style="fill:#ad99bb;fill-opacity:1;fill-rule:nonzero;stroke:none"
         transform="matrix(0.13333333,0,0,-0.13333333,0,5333.3333)" />
      <path
         id="path103"
         d="m 10174.2,24622 v 0 c -0.1,0.2 -0.1,0.4 -0.1,0.6 0,-0.2 0,-0.4 0.1,-0.6 m -0.1,0.8 c 0,0.1 0,0.2 0,0.3 0,-0.1 0,-0.2 0,-0.3 m -0.1,0.7 v 0.1 -0.1 m -3.4,153.1 v 0.1 -0.1 m 0,1.2 c 0,0.8 0,1.6 0,2.5 0,-0.9 0,-1.7 0,-2.5 m 0,2.7 c 0,0.8 0,1.7 0,2.6 0,-0.9 0,-1.8 0,-2.6 m 0,2.7 c 2.2,314 32.6,949.6 57.3,1418 1,19.9 2,39.4 3.1,58.6 v 0 c 0,1.3 0.1,2.5 0.2,3.8 0.1,1.9 0.2,3.9 0.4,5.8 19.2,268.9 243.2,476 510.8,476.3 0.2,0 0.3,0 0.5,0 v 0 c 8.9,0 17.9,-0.2 26.9,-0.7 l 8254.8,-426.3 v 0 c 0.4,-0.3 0.7,-0.5 1,-0.8 0.2,-0.1 0.3,-0.2 0.5,-0.3 0.2,-0.2 0.4,-0.3 0.6,-0.5 0.1,-0.1 0.3,-0.2 0.5,-0.4 0.1,-0.1 0.3,-0.2 0.5,-0.3 0.2,-0.2 0.4,-0.4 0.6,-0.5 0.1,-0.1 0.2,-0.2 0.3,-0.3 0.3,-0.2 0.5,-0.3 0.7,-0.5 0.1,-0.1 0.2,-0.2 0.3,-0.2 78.4,-62 119,-170.2 112.9,-277.6 l -8302.9,428.8 c -4.9,0.2 -9.7,0.3 -14.5,0.3 -145.3,0 -266.8,-113.4 -274.9,-260.2 -18.2,-330.1 -47.9,-893.7 -63.3,-1322.6 -33,41.1 -61,86.8 -83,136.3 l -210.5,474.1 v 0 c -12.2,-279.3 -21.6,-541.7 -22.8,-710.8"
         style="fill:#ffd3b2;fill-opacity:1;fill-rule:nonzero;stroke:none"
         transform="matrix(0.13333333,0,0,-0.13333333,0,5333.3333)" />
      <path
         id="path104"
         d="m 10493.3,24258.7 c -13.5,2.9 -32.8,7.8 -55.3,15.9 -31.9,11.5 -70.2,29.4 -107.7,57 -71.3,52.2 -139.7,139.1 -155.3,282.6 -0.1,0.1 -0.1,0.2 -0.1,0.3 0,0.5 -0.1,1 -0.1,1.4 -0.1,0.2 -0.1,0.4 -0.1,0.6 0,0.4 -0.1,0.9 -0.1,1.3 0,0.2 -0.1,0.3 -0.1,0.6 0,0.4 -0.1,0.8 -0.1,1.3 0,0.1 -0.1,0.3 -0.1,0.5 0,0.6 -0.1,1.2 -0.1,1.8 v 0 c -0.1,0.2 -0.1,0.4 -0.1,0.6 0,0.1 0,0.1 0,0.2 0,0.1 0,0.2 0,0.3 -0.1,0.1 -0.1,0.3 -0.1,0.4 v 0.1 c -2.8,31.2 -3.8,83.9 -3.4,152.9 0,0 0,0 0,0.1 v 0.1 c 0,0.1 0,0.2 0,0.3 0,0.2 0,0.5 0,0.7 0,0 0,0 0,0.1 0,0.8 0,1.6 0,2.5 0,0 0,0.1 0,0.2 0,0.8 0,1.7 0,2.6 v 0.1 c 1.2,169.1 10.6,431.5 22.8,710.8 v 0 l 210.5,-474.1 c 22,-49.5 50,-95.2 83,-136.3 -9.5,-263.6 -13.6,-476.3 -6.4,-552.8 2.5,-26 7.2,-49.6 12.8,-72.1"
         style="fill:#ebb9a0;fill-opacity:1;fill-rule:nonzero;stroke:none"
         transform="matrix(0.13333333,0,0,-0.13333333,0,5333.3333)" />
      <path
         id="path105"
         d="m 18780.6,24371.2 -3513.9,202.8 c -118,6.8 -209.3,106 -206.3,224.2 l 22.8,905.4 c 3.1,123.6 107.8,220.1 231.2,213.3 l 3519.9,-196.3 -53.7,-1349.4"
         style="fill:#ffffff;fill-opacity:1;fill-rule:nonzero;stroke:none"
         transform="matrix(0.13333333,0,0,-0.13333333,0,5333.3333)" />
      <path
         id="path106"
         d="m 15420.6,25499.3 c 1.1,40.6 35.4,72.3 76,70 l 3324.3,-185.3 13.4,336.6 -3519.9,196.3 c -123.4,6.8 -228.1,-89.7 -231.2,-213.3 l -22.8,-905.4 c -3,-118.2 88.3,-217.4 206.3,-224.2 l 130.4,-7.6 23.5,932.9"
         style="fill:#b9d0ed;fill-opacity:1;fill-rule:nonzero;stroke:none"
         transform="matrix(0.13333333,0,0,-0.13333333,0,5333.3333)" />
      <path
         id="path107"
         d="m 10529.9,24414.2 8286.5,-510.5 c 40.8,51 56.8,105.9 46.3,160.9 -13.3,69.9 -66.8,131.1 -136.2,156.1 l -110.5,39.6 63.8,1601.8 134.2,17.1 c 88.7,11.4 143.5,54.2 162.8,127.3 14.3,54 4.5,115.1 -22,155.6 l -8193.2,423.1 c -194.4,8.5 -360.6,-139.7 -370.9,-333.8 -47.9,-903.7 -68.8,-1492.1 -57.3,-1614.4 17.8,-188 171.9,-219.1 196.5,-222.8 z m 8405.6,-838.5 -8439.5,520.1 c -151.3,17.6 -446.7,147 -481.1,511.1 -13.6,143.3 5.4,702.3 56.3,1661.4 19.6,370.1 336.6,656.7 706.9,636.4 l 8303.5,-428.8 39,-29.3 c 149.1,-111.8 217.2,-326.4 165.6,-521.7 -41.1,-155.6 -148.3,-272.4 -296.7,-329.5 l -44.9,-1128 c 120,-77.7 205.5,-201.4 232.5,-343 34.8,-183.3 -35.1,-367.4 -192,-505.2 l -49.6,-43.5"
         style="fill:#320056;fill-opacity:1;fill-rule:nonzero;stroke:none"
         transform="matrix(0.13333333,0,0,-0.13333333,0,5333.3333)" />
      <path
         id="path108"
         d="m 18771.4,24211.5 -3513.9,202.8 c -205.4,11.8 -362.3,182.2 -357.1,387.9 l 22.8,905.5 c 2.7,103.4 46,198.9 122,269.1 76,70.1 174.8,105.3 278.1,99.8 l 3519.9,-196.3 -17.8,-319.5 -3519.9,196.3 c -21.6,1.6 -36.5,-9.2 -43.4,-15.5 -6.8,-6.4 -18.4,-20.3 -18.9,-41.9 l -22.9,-905.6 c -0.8,-32 23.6,-58.6 55.6,-60.4 l 3513.9,-202.7 -18.4,-319.5"
         style="fill:#320056;fill-opacity:1;fill-rule:nonzero;stroke:none"
         transform="matrix(0.13333333,0,0,-0.13333333,0,5333.3333)" />
      <path
         id="path109"
         d="m 14562.1,24005.4 -319.4,19.8 157.6,2534 319.4,-19.8 -157.6,-2534"
         style="fill:#320056;fill-opacity:1;fill-rule:nonzero;stroke:none"
         transform="matrix(0.13333333,0,0,-0.13333333,0,5333.3333)" />
      <path
         id="path110"
         d="m 17299.2,25159.5 1511.4,-50.3 c 78.4,-3.8 75.2,-121.2 -4,-119.9 l -1510.8,101.2 c -43.8,3 -41.4,70.3 3.4,69"
         style="fill:#320056;fill-opacity:1;fill-rule:nonzero;stroke:none"
         transform="matrix(0.13333333,0,0,-0.13333333,0,5333.3333)" />
      <path
         id="path111"
         d="m 15748,25188.5 -679.2,10.3 c -78.7,2.5 -77.2,119.9 1.8,120.1 4.2,0.1 676.5,-61.2 681,-61.5 43.2,-3.9 39.9,-69.5 -3.6,-68.9"
         style="fill:#320056;fill-opacity:1;fill-rule:nonzero;stroke:none"
         transform="matrix(0.13333333,0,0,-0.13333333,0,5333.3333)" />
      <path
         id="path112"
         d="m 16039,25226.5 c 34,9.5 531.4,2.9 399.3,-76.3 -135.6,-12.1 -269.9,0.7 -402.8,28.8 -26.2,5.4 -22.9,46 3.5,47.5"
         style="fill:#320056;fill-opacity:1;fill-rule:nonzero;stroke:none"
         transform="matrix(0.13333333,0,0,-0.13333333,0,5333.3333)" />
      <path
         id="path113"
         d="m 25076.5,18084.3 c -1179.9,-1250.3 -2968.6,-1232.7 -3492.3,-1215.2 -84.4,2.9 -136,5.7 -146.7,3.2 -77.7,-17.9 -489.5,-286.6 -1253.8,-232.8 -1250.9,88 -1390.1,1028.6 -1390.1,1028.6 l 1593.3,-86.6 c 0,0 -397.4,316.9 -400.3,502.8 -5.9,394.1 706,438.9 1385.2,-244.8 0,0 2382.2,53.8 3704.7,1701.6 460,0 868.3,-774.5 0,-1456.8"
         style="fill:#ffd41d;fill-opacity:1;fill-rule:nonzero;stroke:none"
         transform="matrix(0.13333333,0,0,-0.13333333,0,5333.3333)" />
      <path
         id="path114"
         d="m 20302.7,18367.8 v 0 c 15.4,1.2 31.3,1.8 47.6,1.8 -16.3,0 -32.2,-0.6 -47.6,-1.8"
         style="fill:#ffffff;fill-opacity:1;fill-rule:nonzero;stroke:none"
         transform="matrix(0.13333333,0,0,-0.13333333,0,5333.3333)" />
      <path
         id="path115"
         d="m 19986.6,18087.5 c -0.9,163.5 122.6,266.1 316.1,280.3 v 0 c -193.4,-14.3 -317,-116.9 -316.1,-280.3"
         style="fill:#c1b2cc;fill-opacity:1;fill-rule:nonzero;stroke:none"
         transform="matrix(0.13333333,0,0,-0.13333333,0,5333.3333)" />
      <path
         id="path116"
         d="m 21413.9,17563.1 c -43.6,0 -87.2,0.6 -130.3,1.8 0,0 -607.6,587.5 -1043.8,587.5 -94,0 -180,-27.2 -250.3,-93.5 -1.5,8.4 -2.7,16.6 -2.8,24.6 -0.1,0.3 -0.1,0.5 -0.1,0.8 v 0 c 0,1.1 0,2.1 0,3.2 -0.9,163.4 122.7,266 316.1,280.3 15.4,1.2 31.3,1.8 47.6,1.8 0.1,0 0.1,0 0.2,0 1,0 2.1,0 3.1,0 267.1,-1.2 645,-156.2 1013.8,-525.7 1.5,-1.4 2.9,-2.9 4.4,-4.4 v 0 c 0,0 2382.2,53.8 3704.7,1701.6 -261.7,-1245 -2111.1,-1978 -3662.6,-1978"
         style="fill:#fff2bb;fill-opacity:1;fill-rule:nonzero;stroke:none"
         transform="matrix(0.13333333,0,0,-0.13333333,0,5333.3333)" />
      <path
         id="path117"
         d="m 25001.9,18528.4 c -957.6,-996.4 -2502.6,-1225.2 -3609.7,-1244.3 0,0 -1143.9,607.6 -1316,1003.1 -58.4,-48.7 -90.9,-117.6 -89.6,-202.9 2.9,-185.9 400.3,-502.8 400.3,-502.8 l -1593.3,86.6 c 0,0 139.2,-940.6 1390.1,-1028.6 764.3,-53.9 1176.1,214.9 1253.8,232.8 77.6,17.9 2268.7,-239.9 3639,1212 640,502.9 586.4,1055.6 329.8,1311.6 -39.9,-315.8 -186.1,-640.2 -404.4,-867.5"
         style="fill:#ef9300;fill-opacity:1;fill-rule:nonzero;stroke:none"
         transform="matrix(0.13333333,0,0,-0.13333333,0,5333.3333)" />
      <path
         id="path118"
         d="m 19165.9,17398.3 1347.3,-87.4 c 0,0 -673.6,-444.8 -1347.3,87.4"
         style="fill:#ffd41d;fill-opacity:1;fill-rule:nonzero;stroke:none"
         transform="matrix(0.13333333,0,0,-0.13333333,0,5333.3333)" />
      <path
         id="path119"
         d="m 25121,18042.3 c -307.8,-549.8 -911.6,-843.6 -1477.2,-1059.1 -685.1,-246.2 -1419.4,-326.5 -2143.1,-295.9 l -47,1.2 c 6.5,-0.4 22.2,2.3 30.8,4.7 0.4,0.1 2.9,1.3 1.5,0.7 l -4.7,-2 -9.2,-4 c -938.3,-454 -2449.8,-311.8 -2805.2,823.3 -29.8,82.4 -46.1,239.6 -61.3,327.3 67.4,-3.7 1677.1,-91.1 1790,-97.3 l -108.4,-284.8 c -183.3,162.4 -382.4,317.7 -453.3,566.5 -56.6,313.4 232,520 516.8,506.3 459.7,-15.9 825.5,-276.8 1134.6,-576.9 l -117.1,47.2 c 999.5,107.9 2010.4,394.7 2847.7,963.4 285.5,189.3 543.9,400 813.1,616.3 26.8,22.7 67.9,18.6 89.2,-9.5 15.3,-19.8 16.7,-45.9 5.8,-66.7 -84.3,-160 -187.5,-311.5 -309.4,-446 -119.6,-137 -254,-261.3 -398.8,-371 -869.8,-649.1 -1959.3,-985.7 -3040.4,-1006.4 h -68.7 c -144,145.3 -302.4,283.2 -477.4,380.4 -192.9,104.4 -470.6,216.2 -651.1,103.8 -24.1,-19.9 -32.9,-49.9 -30.7,-77.5 62.6,-146.7 217.6,-273.9 339.1,-379.7 l 379.8,-311.4 c -328.5,17.8 -1727.2,93.9 -2081.5,113.1 l 167,183.2 c 215.4,-839.4 1253.3,-990.4 1984.2,-807 132.3,32.9 265.3,85.7 389.4,142.8 11.2,5.2 27.6,11.4 39.1,15.5 47.1,18.7 100.3,15.6 149,13.7 104.8,-3.7 221.9,-7.7 326.1,-7 857,1 1726.8,169.1 2464.4,611.7 241.3,149.8 468.5,311.2 727.8,465.2 51.1,34.4 122.1,-29 89.1,-84.1"
         style="fill:#320056;fill-opacity:1;fill-rule:nonzero;stroke:none"
         transform="matrix(0.13333333,0,0,-0.13333333,0,5333.3333)" />
      <path
         id="path120"
         d="m 13470.9,17959.8 c 48.8,370.3 658.7,393.2 868.2,-48.1 136.8,328.5 554.7,372.6 793,-43.5 l 1014.8,-55.7 c 0,0 -172.4,-814.8 -1199.8,-892.4 -995.9,-75.3 -1548.9,488.1 -1476.2,1039.7"
         style="fill:#ffd41d;fill-opacity:1;fill-rule:nonzero;stroke:none"
         transform="matrix(0.13333333,0,0,-0.13333333,0,5333.3333)" />
      <path
         id="path121"
         d="m 14443.6,18066.2 v 0 c 70.4,66.8 159.7,102.9 253.8,103 -94.1,-0.1 -183.4,-36.2 -253.8,-103"
         style="fill:#f2b7c9;fill-opacity:1;fill-rule:nonzero;stroke:none"
         transform="matrix(0.13333333,0,0,-0.13333333,0,5333.3333)" />
      <path
         id="path122"
         d="m 14341.6,17917.7 c 25.6,59.3 60.6,109.2 102,148.5 v 0 c -41.4,-39.3 -76.4,-89.2 -102,-148.5 m -872,31.6 c 0,0.4 0.1,0.8 0.1,1.2 0,-0.4 -0.1,-0.8 -0.1,-1.2"
         style="fill:#c1b2cc;fill-opacity:1;fill-rule:nonzero;stroke:none"
         transform="matrix(0.13333333,0,0,-0.13333333,0,5333.3333)" />
      <path
         id="path123"
         d="m 13538.3,18116.3 v 0 c 68.1,81.2 178.4,123.9 297.8,123.9 16.7,0 33.5,-0.9 50.4,-2.5 -16.9,1.6 -33.7,2.5 -50.4,2.5 -119.4,0 -229.6,-42.7 -297.8,-123.9"
         style="fill:#f2b7c9;fill-opacity:1;fill-rule:nonzero;stroke:none"
         transform="matrix(0.13333333,0,0,-0.13333333,0,5333.3333)" />
      <path
         id="path124"
         d="m 13469.8,17950.7 c 0.3,3 0.7,6 1.1,9.1 8.2,62.1 32.2,114.5 67.4,156.5 v 0 c -35.2,-42 -59.2,-94.4 -67.4,-156.5 -0.4,-3.1 -0.8,-6.1 -1.1,-9.1"
         style="fill:#c1b2cc;fill-opacity:1;fill-rule:nonzero;stroke:none"
         transform="matrix(0.13333333,0,0,-0.13333333,0,5333.3333)" />
      <path
         id="path125"
         d="m 15429.1,17338.6 c -27.2,0 -99.5,69.7 -245.2,257.5 -161.7,208.5 -305.9,276.6 -425.3,276.6 -225.3,0 -362.5,-242.5 -362.5,-242.5 -161.6,202 -364.5,303.2 -533.2,303.2 -186.2,0 -330.7,-123.4 -331.7,-370.6 l -14.1,25.4 c -45.1,116 -61.9,238.7 -47.5,361.1 0,0.4 0.1,0.8 0.1,1.2 0,0.1 0.1,0.1 0.1,0.2 0.3,3 0.7,6 1.1,9.1 8.2,62.1 32.2,114.5 67.4,156.5 68.2,81.2 178.4,123.9 297.8,123.9 16.7,0 33.5,-0.9 50.4,-2.5 173.1,-17.1 355.7,-121.9 452.6,-326 v 0 c 0.7,1.8 1.5,3.6 2.3,5.4 0.1,0.2 0.1,0.4 0.2,0.6 25.6,59.3 60.6,109.2 102,148.5 70.4,66.8 159.7,102.9 253.8,103 0.1,0 0.2,0 0.3,0 0.1,0 0.2,0 0.3,0 149.8,-0.2 312,-91.4 430.7,-295.2 0.3,-0.5 0.6,-1 0.9,-1.5 0.2,-0.3 0.4,-0.7 0.6,-1 0.3,-0.6 0.7,-1.2 1,-1.8 0.3,-0.5 0.6,-1 0.9,-1.5 l 105.7,-5.8 c 69.1,-138.9 255.1,-523.9 191.3,-523.8"
         style="fill:#fff2bb;fill-opacity:1;fill-rule:nonzero;stroke:none"
         transform="matrix(0.13333333,0,0,-0.13333333,0,5333.3333)" />
      <path
         id="path126"
         d="m 16147,17812.5 -1014.9,55.7 c 183.8,-648.9 -1080.5,-748.8 -1617.2,-274.8 154.6,-406.2 660.2,-731.6 1432.2,-673.3 1027.4,77.6 1199.9,892.4 1199.9,892.4"
         style="fill:#ef9300;fill-opacity:1;fill-rule:nonzero;stroke:none"
         transform="matrix(0.13333333,0,0,-0.13333333,0,5333.3333)" />
      <path
         id="path127"
         d="m 13629.5,17938.9 v 0 c -24.4,-185.8 41.3,-371.8 185.1,-523.9 235.7,-249.2 644.3,-371.1 1120.5,-335.4 606.2,45.8 873.6,372.9 984.3,585.1 l -882.9,48.5 -43.3,75.5 c -82.8,144.6 -198.4,227.6 -308.4,220 -86.1,-5.3 -158.3,-63.1 -198,-158.6 l -138.2,-331.6 -154.1,324.6 c -90.3,190.2 -274.9,253.9 -408.1,233.3 -52.9,-8.4 -143.7,-37.3 -156.9,-137.5 z m 1145.9,-1185.4 c -495.7,0 -923.8,156.8 -1193.2,441.6 -211.4,223.5 -307.2,502.5 -269.9,785.6 28.6,217.3 191.2,375.1 424.3,411.8 187.1,29.3 427,-27.9 602.3,-204.5 89.3,82.7 201.9,132.4 325.8,140.1 210.3,12.6 413.9,-99.4 558.2,-304.7 l 1119.2,-61.4 -38.6,-182.7 c -68.3,-322.4 -437.1,-950.2 -1344.3,-1018.8 -62.2,-4.7 -123.5,-7 -183.8,-7"
         style="fill:#320056;fill-opacity:1;fill-rule:nonzero;stroke:none"
         transform="matrix(0.13333333,0,0,-0.13333333,0,5333.3333)" />
      <path
         id="path128"
         d="m 14346.1,17535.8 -163.8,344.1 c -88.5,198.7 199.3,335.8 297.8,141.8 11.9,-25.1 16.8,-52.4 15.8,-78.3 l -17.1,-380.7 c -1.9,-71.7 -103.7,-91.3 -132.7,-26.9"
         style="fill:#320056;fill-opacity:1;fill-rule:nonzero;stroke:none"
         transform="matrix(0.13333333,0,0,-0.13333333,0,5333.3333)" />
      <path
         id="path129"
         d="m 15123.3,17552.2 -148.4,286 c -96.5,198 190.1,346.8 296.5,153.8 15.6,-30 21.1,-62.6 17.9,-93.9 l -33,-320.5 c -5.7,-69.1 -102.8,-86.5 -133,-25.4"
         style="fill:#320056;fill-opacity:1;fill-rule:nonzero;stroke:none"
         transform="matrix(0.13333333,0,0,-0.13333333,0,5333.3333)" />
    </g>
  </g>
</svg>
